<mxfile host="Electron" agent="Mozilla/5.0 (Windows NT 10.0; Win64; x64) AppleWebKit/537.36 (KHTML, like Gecko) draw.io/26.2.15 Chrome/134.0.6998.205 Electron/35.2.1 Safari/537.36" version="26.2.15">
  <diagram name="Page-1" id="5iqU9kDCtn2RbOwGdbsO">
    <mxGraphModel dx="815" dy="481" grid="1" gridSize="10" guides="1" tooltips="1" connect="1" arrows="1" fold="1" page="1" pageScale="1" pageWidth="827" pageHeight="1169" math="0" shadow="0">
      <root>
        <mxCell id="0" />
        <mxCell id="1" parent="0" />
        <mxCell id="fjABjcLvteYjOsmJWuXJ-13" value="" style="rounded=0;whiteSpace=wrap;html=1;gradientColor=none;strokeColor=default;fillStyle=solid;fillColor=#AFAFAF;" vertex="1" parent="1">
          <mxGeometry x="40" y="240" width="160" height="160" as="geometry" />
        </mxCell>
        <mxCell id="fjABjcLvteYjOsmJWuXJ-18" value="" style="rounded=0;whiteSpace=wrap;html=1;gradientColor=none;strokeColor=default;fillStyle=solid;fillColor=#AFAFAF;" vertex="1" parent="1">
          <mxGeometry x="200" y="240" width="160" height="160" as="geometry" />
        </mxCell>
        <mxCell id="fjABjcLvteYjOsmJWuXJ-19" value="" style="rounded=0;whiteSpace=wrap;html=1;gradientColor=none;strokeColor=default;fillStyle=solid;fillColor=#AFAFAF;" vertex="1" parent="1">
          <mxGeometry x="360" y="240" width="160" height="160" as="geometry" />
        </mxCell>
        <mxCell id="fjABjcLvteYjOsmJWuXJ-20" value="" style="rounded=0;whiteSpace=wrap;html=1;gradientColor=none;strokeColor=default;fillStyle=solid;fillColor=#AFAFAF;" vertex="1" parent="1">
          <mxGeometry x="360" y="400" width="160" height="160" as="geometry" />
        </mxCell>
        <mxCell id="fjABjcLvteYjOsmJWuXJ-21" value="" style="rounded=0;whiteSpace=wrap;html=1;gradientColor=none;strokeColor=default;fillStyle=solid;fillColor=#AFAFAF;" vertex="1" parent="1">
          <mxGeometry x="200" y="400" width="160" height="160" as="geometry" />
        </mxCell>
        <mxCell id="fjABjcLvteYjOsmJWuXJ-22" value="" style="rounded=0;whiteSpace=wrap;html=1;gradientColor=none;strokeColor=default;fillStyle=solid;fillColor=#AFAFAF;" vertex="1" parent="1">
          <mxGeometry x="40" y="400" width="160" height="160" as="geometry" />
        </mxCell>
        <mxCell id="fjABjcLvteYjOsmJWuXJ-23" value="" style="rounded=0;whiteSpace=wrap;html=1;gradientColor=none;strokeColor=default;fillStyle=solid;fillColor=#AFAFAF;" vertex="1" parent="1">
          <mxGeometry x="40" y="560" width="160" height="160" as="geometry" />
        </mxCell>
        <mxCell id="fjABjcLvteYjOsmJWuXJ-24" value="" style="rounded=0;whiteSpace=wrap;html=1;gradientColor=none;strokeColor=default;fillStyle=solid;fillColor=#AFAFAF;" vertex="1" parent="1">
          <mxGeometry x="200" y="560" width="160" height="160" as="geometry" />
        </mxCell>
        <mxCell id="fjABjcLvteYjOsmJWuXJ-25" value="" style="rounded=0;whiteSpace=wrap;html=1;gradientColor=none;strokeColor=default;fillStyle=solid;fillColor=#AFAFAF;" vertex="1" parent="1">
          <mxGeometry x="360" y="560" width="160" height="160" as="geometry" />
        </mxCell>
        <mxCell id="fjABjcLvteYjOsmJWuXJ-1" value="" style="rounded=0;whiteSpace=wrap;html=1;gradientColor=none;strokeColor=default;fillStyle=solid;fillColor=#AFAFAF;" vertex="1" parent="1">
          <mxGeometry x="40" y="40" width="160" height="160" as="geometry" />
        </mxCell>
        <mxCell id="fjABjcLvteYjOsmJWuXJ-4" value="" style="rounded=0;whiteSpace=wrap;html=1;fillColor=#FF3636;" vertex="1" parent="1">
          <mxGeometry x="40" y="80" width="40" height="80" as="geometry" />
        </mxCell>
        <mxCell id="fjABjcLvteYjOsmJWuXJ-5" value="" style="rounded=0;whiteSpace=wrap;html=1;fillColor=#FF3636;" vertex="1" parent="1">
          <mxGeometry x="160" y="80" width="40" height="80" as="geometry" />
        </mxCell>
        <mxCell id="fjABjcLvteYjOsmJWuXJ-6" value="" style="rounded=0;whiteSpace=wrap;html=1;fillColor=#FF3636;" vertex="1" parent="1">
          <mxGeometry x="80" y="40" width="80" height="40" as="geometry" />
        </mxCell>
        <mxCell id="fjABjcLvteYjOsmJWuXJ-7" value="" style="rounded=0;whiteSpace=wrap;html=1;fillColor=#FF3636;" vertex="1" parent="1">
          <mxGeometry x="80" y="160" width="80" height="40" as="geometry" />
        </mxCell>
        <mxCell id="fjABjcLvteYjOsmJWuXJ-8" value="" style="rounded=0;whiteSpace=wrap;html=1;gradientColor=none;strokeColor=default;fillStyle=solid;fillColor=#AFAFAF;" vertex="1" parent="1">
          <mxGeometry x="240" y="40" width="160" height="160" as="geometry" />
        </mxCell>
        <mxCell id="fjABjcLvteYjOsmJWuXJ-9" value="" style="rounded=0;whiteSpace=wrap;html=1;fillColor=#FF3636;" vertex="1" parent="1">
          <mxGeometry x="240" y="40" width="40" height="40" as="geometry" />
        </mxCell>
        <mxCell id="fjABjcLvteYjOsmJWuXJ-10" value="" style="rounded=0;whiteSpace=wrap;html=1;fillColor=#FF3636;" vertex="1" parent="1">
          <mxGeometry x="360" y="160" width="40" height="40" as="geometry" />
        </mxCell>
        <mxCell id="fjABjcLvteYjOsmJWuXJ-11" value="" style="rounded=0;whiteSpace=wrap;html=1;fillColor=#FF3636;" vertex="1" parent="1">
          <mxGeometry x="360" y="40" width="40" height="40" as="geometry" />
        </mxCell>
        <mxCell id="fjABjcLvteYjOsmJWuXJ-12" value="" style="rounded=0;whiteSpace=wrap;html=1;fillColor=#FF3636;" vertex="1" parent="1">
          <mxGeometry x="240" y="160" width="40" height="40" as="geometry" />
        </mxCell>
        <mxCell id="fjABjcLvteYjOsmJWuXJ-15" value="" style="rounded=0;whiteSpace=wrap;html=1;fillColor=#36E4FF;" vertex="1" parent="1">
          <mxGeometry x="160" y="280" width="80" height="80" as="geometry" />
        </mxCell>
        <mxCell id="fjABjcLvteYjOsmJWuXJ-16" value="" style="rounded=0;whiteSpace=wrap;html=1;fillColor=#36E4FF;" vertex="1" parent="1">
          <mxGeometry x="80" y="240" width="80" height="40" as="geometry" />
        </mxCell>
        <mxCell id="fjABjcLvteYjOsmJWuXJ-26" value="" style="rounded=0;whiteSpace=wrap;html=1;fillColor=light-dark(#EE1717,#006900);strokeColor=default;" vertex="1" parent="1">
          <mxGeometry x="320" y="280" width="80" height="80" as="geometry" />
        </mxCell>
        <mxCell id="fjABjcLvteYjOsmJWuXJ-27" value="" style="rounded=0;whiteSpace=wrap;html=1;fillColor=#4FFF3B;" vertex="1" parent="1">
          <mxGeometry x="240" y="360" width="80" height="80" as="geometry" />
        </mxCell>
        <mxCell id="fjABjcLvteYjOsmJWuXJ-29" value="" style="rounded=0;whiteSpace=wrap;html=1;fillColor=#4FFF3B;" vertex="1" parent="1">
          <mxGeometry x="320" y="440" width="80" height="80" as="geometry" />
        </mxCell>
        <mxCell id="fjABjcLvteYjOsmJWuXJ-36" value="" style="rounded=0;whiteSpace=wrap;html=1;fillColor=light-dark(#EE1717,#006900);strokeColor=default;" vertex="1" parent="1">
          <mxGeometry x="240" y="240" width="80" height="40" as="geometry" />
        </mxCell>
        <mxCell id="fjABjcLvteYjOsmJWuXJ-48" value="" style="rounded=0;whiteSpace=wrap;html=1;fillColor=light-dark(#EE1717,#006900);strokeColor=default;" vertex="1" parent="1">
          <mxGeometry x="160" y="440" width="80" height="80" as="geometry" />
        </mxCell>
        <mxCell id="fjABjcLvteYjOsmJWuXJ-49" value="" style="rounded=0;whiteSpace=wrap;html=1;fillColor=light-dark(#EE1717,#006900);strokeColor=default;" vertex="1" parent="1">
          <mxGeometry x="80" y="360" width="80" height="80" as="geometry" />
        </mxCell>
        <mxCell id="fjABjcLvteYjOsmJWuXJ-50" value="" style="rounded=0;whiteSpace=wrap;html=1;fillColor=light-dark(#EE1717,#006900);strokeColor=default;" vertex="1" parent="1">
          <mxGeometry x="480" y="600" width="40" height="80" as="geometry" />
        </mxCell>
        <mxCell id="fjABjcLvteYjOsmJWuXJ-51" value="" style="rounded=0;whiteSpace=wrap;html=1;fillColor=light-dark(#EE1717,#006900);strokeColor=default;" vertex="1" parent="1">
          <mxGeometry x="400" y="520" width="80" height="80" as="geometry" />
        </mxCell>
        <mxCell id="fjABjcLvteYjOsmJWuXJ-52" value="" style="rounded=0;whiteSpace=wrap;html=1;fillColor=#4FFF3B;" vertex="1" parent="1">
          <mxGeometry x="400" y="240" width="80" height="40" as="geometry" />
        </mxCell>
        <mxCell id="fjABjcLvteYjOsmJWuXJ-53" value="" style="rounded=0;whiteSpace=wrap;html=1;fillColor=#4FFF3B;" vertex="1" parent="1">
          <mxGeometry x="480" y="280" width="40" height="80" as="geometry" />
        </mxCell>
        <mxCell id="fjABjcLvteYjOsmJWuXJ-54" value="" style="rounded=0;whiteSpace=wrap;html=1;fillColor=#4FFF3B;" vertex="1" parent="1">
          <mxGeometry x="80" y="520" width="80" height="80" as="geometry" />
        </mxCell>
        <mxCell id="fjABjcLvteYjOsmJWuXJ-55" value="" style="rounded=0;whiteSpace=wrap;html=1;fillColor=#4FFF3B;" vertex="1" parent="1">
          <mxGeometry x="160" y="600" width="80" height="80" as="geometry" />
        </mxCell>
        <mxCell id="fjABjcLvteYjOsmJWuXJ-56" value="" style="rounded=0;whiteSpace=wrap;html=1;fillColor=#36E4FF;" vertex="1" parent="1">
          <mxGeometry x="480" y="440" width="40" height="80" as="geometry" />
        </mxCell>
        <mxCell id="fjABjcLvteYjOsmJWuXJ-57" value="" style="rounded=0;whiteSpace=wrap;html=1;fillColor=#36E4FF;" vertex="1" parent="1">
          <mxGeometry x="400" y="360" width="80" height="80" as="geometry" />
        </mxCell>
        <mxCell id="fjABjcLvteYjOsmJWuXJ-58" value="" style="rounded=0;whiteSpace=wrap;html=1;fillColor=#36E4FF;" vertex="1" parent="1">
          <mxGeometry x="320" y="600" width="80" height="80" as="geometry" />
        </mxCell>
        <mxCell id="fjABjcLvteYjOsmJWuXJ-59" value="" style="rounded=0;whiteSpace=wrap;html=1;fillColor=#36E4FF;" vertex="1" parent="1">
          <mxGeometry x="240" y="520" width="80" height="80" as="geometry" />
        </mxCell>
        <mxCell id="fjABjcLvteYjOsmJWuXJ-61" value="" style="rounded=0;whiteSpace=wrap;html=1;fillColor=#36E4FF;" vertex="1" parent="1">
          <mxGeometry x="80" y="680" width="80" height="40" as="geometry" />
        </mxCell>
        <mxCell id="fjABjcLvteYjOsmJWuXJ-62" value="" style="rounded=0;whiteSpace=wrap;html=1;fillColor=#4FFF3B;" vertex="1" parent="1">
          <mxGeometry x="400" y="680" width="80" height="40" as="geometry" />
        </mxCell>
        <mxCell id="fjABjcLvteYjOsmJWuXJ-63" value="" style="rounded=0;whiteSpace=wrap;html=1;fillColor=light-dark(#EE1717,#006900);strokeColor=default;" vertex="1" parent="1">
          <mxGeometry x="40" y="600" width="40" height="80" as="geometry" />
        </mxCell>
        <mxCell id="fjABjcLvteYjOsmJWuXJ-64" value="" style="rounded=0;whiteSpace=wrap;html=1;fillColor=#36E4FF;" vertex="1" parent="1">
          <mxGeometry x="40" y="440" width="40" height="80" as="geometry" />
        </mxCell>
        <mxCell id="fjABjcLvteYjOsmJWuXJ-65" value="" style="rounded=0;whiteSpace=wrap;html=1;fillColor=#4FFF3B;" vertex="1" parent="1">
          <mxGeometry x="40" y="280" width="40" height="80" as="geometry" />
        </mxCell>
        <mxCell id="fjABjcLvteYjOsmJWuXJ-66" value="" style="rounded=0;whiteSpace=wrap;html=1;fillColor=light-dark(#EE1717,#006900);strokeColor=default;" vertex="1" parent="1">
          <mxGeometry x="240" y="680" width="80" height="40" as="geometry" />
        </mxCell>
        <mxCell id="fjABjcLvteYjOsmJWuXJ-67" value="" style="rounded=0;whiteSpace=wrap;html=1;gradientColor=none;strokeColor=default;fillStyle=solid;fillColor=#AFAFAF;" vertex="1" parent="1">
          <mxGeometry x="40" y="800" width="80" height="80" as="geometry" />
        </mxCell>
        <mxCell id="fjABjcLvteYjOsmJWuXJ-70" value="" style="rounded=0;whiteSpace=wrap;html=1;gradientColor=none;strokeColor=default;fillStyle=solid;fillColor=#AFAFAF;" vertex="1" parent="1">
          <mxGeometry x="40" y="920" width="80" height="80" as="geometry" />
        </mxCell>
        <mxCell id="fjABjcLvteYjOsmJWuXJ-71" value="" style="rounded=0;whiteSpace=wrap;html=1;fillColor=#36E4FF;" vertex="1" parent="1">
          <mxGeometry x="60" y="860" width="40" height="20" as="geometry" />
        </mxCell>
        <mxCell id="fjABjcLvteYjOsmJWuXJ-72" value="" style="rounded=0;whiteSpace=wrap;html=1;fillColor=#36E4FF;" vertex="1" parent="1">
          <mxGeometry x="60" y="920" width="40" height="20" as="geometry" />
        </mxCell>
        <mxCell id="fjABjcLvteYjOsmJWuXJ-74" value="" style="rounded=0;whiteSpace=wrap;html=1;gradientColor=none;strokeColor=default;fillStyle=solid;fillColor=#AFAFAF;" vertex="1" parent="1">
          <mxGeometry x="160" y="820" width="80" height="80" as="geometry" />
        </mxCell>
        <mxCell id="fjABjcLvteYjOsmJWuXJ-75" value="" style="rounded=0;whiteSpace=wrap;html=1;gradientColor=none;strokeColor=default;fillStyle=solid;fillColor=#AFAFAF;" vertex="1" parent="1">
          <mxGeometry x="160" y="900" width="80" height="80" as="geometry" />
        </mxCell>
        <mxCell id="fjABjcLvteYjOsmJWuXJ-76" value="" style="rounded=0;whiteSpace=wrap;html=1;fillColor=#36E4FF;" vertex="1" parent="1">
          <mxGeometry x="280" y="880" width="40" height="40" as="geometry" />
        </mxCell>
        <mxCell id="fjABjcLvteYjOsmJWuXJ-77" value="" style="rounded=0;whiteSpace=wrap;html=1;fillColor=#36E4FF;" vertex="1" parent="1">
          <mxGeometry x="180" y="900" width="40" height="20" as="geometry" />
        </mxCell>
        <mxCell id="fjABjcLvteYjOsmJWuXJ-82" value="" style="rounded=0;whiteSpace=wrap;html=1;fillColor=#36E4FF;" vertex="1" parent="1">
          <mxGeometry x="180" y="880" width="40" height="20" as="geometry" />
        </mxCell>
        <mxCell id="fjABjcLvteYjOsmJWuXJ-83" value="" style="rounded=0;whiteSpace=wrap;html=1;gradientColor=none;strokeColor=default;fillStyle=solid;fillColor=#AFAFAF;" vertex="1" parent="1">
          <mxGeometry x="360" y="820" width="80" height="80" as="geometry" />
        </mxCell>
        <mxCell id="fjABjcLvteYjOsmJWuXJ-84" value="" style="rounded=0;whiteSpace=wrap;html=1;gradientColor=none;strokeColor=default;fillStyle=solid;fillColor=#AFAFAF;" vertex="1" parent="1">
          <mxGeometry x="360" y="900" width="80" height="80" as="geometry" />
        </mxCell>
        <mxCell id="fjABjcLvteYjOsmJWuXJ-85" value="" style="rounded=0;whiteSpace=wrap;html=1;fillColor=#36E4FF;" vertex="1" parent="1">
          <mxGeometry x="380" y="900" width="40" height="20" as="geometry" />
        </mxCell>
        <mxCell id="fjABjcLvteYjOsmJWuXJ-86" value="" style="rounded=0;whiteSpace=wrap;html=1;fillColor=#36E4FF;" vertex="1" parent="1">
          <mxGeometry x="380" y="880" width="40" height="20" as="geometry" />
        </mxCell>
        <mxCell id="fjABjcLvteYjOsmJWuXJ-87" value="" style="rounded=0;whiteSpace=wrap;html=1;gradientColor=none;strokeColor=default;fillStyle=solid;fillColor=#AFAFAF;" vertex="1" parent="1">
          <mxGeometry x="480" y="800" width="80" height="80" as="geometry" />
        </mxCell>
        <mxCell id="fjABjcLvteYjOsmJWuXJ-88" value="" style="rounded=0;whiteSpace=wrap;html=1;gradientColor=none;strokeColor=default;fillStyle=solid;fillColor=#AFAFAF;" vertex="1" parent="1">
          <mxGeometry x="480" y="920" width="80" height="80" as="geometry" />
        </mxCell>
        <mxCell id="fjABjcLvteYjOsmJWuXJ-89" value="" style="rounded=0;whiteSpace=wrap;html=1;fillColor=#36E4FF;" vertex="1" parent="1">
          <mxGeometry x="500" y="860" width="40" height="20" as="geometry" />
        </mxCell>
        <mxCell id="fjABjcLvteYjOsmJWuXJ-90" value="" style="rounded=0;whiteSpace=wrap;html=1;fillColor=#36E4FF;" vertex="1" parent="1">
          <mxGeometry x="500" y="920" width="40" height="20" as="geometry" />
        </mxCell>
        <mxCell id="fjABjcLvteYjOsmJWuXJ-91" value="" style="endArrow=classic;html=1;rounded=0;" edge="1" parent="1">
          <mxGeometry width="50" height="50" relative="1" as="geometry">
            <mxPoint x="80" y="825" as="sourcePoint" />
            <mxPoint x="80" y="855" as="targetPoint" />
          </mxGeometry>
        </mxCell>
        <mxCell id="fjABjcLvteYjOsmJWuXJ-93" value="" style="endArrow=classic;html=1;rounded=0;" edge="1" parent="1">
          <mxGeometry width="50" height="50" relative="1" as="geometry">
            <mxPoint x="250" y="900" as="sourcePoint" />
            <mxPoint x="270" y="900" as="targetPoint" />
          </mxGeometry>
        </mxCell>
        <mxCell id="fjABjcLvteYjOsmJWuXJ-94" value="" style="endArrow=classic;html=1;rounded=0;" edge="1" parent="1">
          <mxGeometry width="50" height="50" relative="1" as="geometry">
            <mxPoint x="130" y="900" as="sourcePoint" />
            <mxPoint x="150" y="900" as="targetPoint" />
          </mxGeometry>
        </mxCell>
        <mxCell id="fjABjcLvteYjOsmJWuXJ-95" value="" style="endArrow=classic;html=1;rounded=0;" edge="1" parent="1">
          <mxGeometry width="50" height="50" relative="1" as="geometry">
            <mxPoint x="330" y="900" as="sourcePoint" />
            <mxPoint x="350" y="900" as="targetPoint" />
          </mxGeometry>
        </mxCell>
        <mxCell id="fjABjcLvteYjOsmJWuXJ-96" value="" style="endArrow=classic;html=1;rounded=0;" edge="1" parent="1">
          <mxGeometry width="50" height="50" relative="1" as="geometry">
            <mxPoint x="450" y="899.67" as="sourcePoint" />
            <mxPoint x="470" y="899.67" as="targetPoint" />
          </mxGeometry>
        </mxCell>
        <mxCell id="fjABjcLvteYjOsmJWuXJ-97" value="" style="endArrow=classic;html=1;rounded=0;" edge="1" parent="1">
          <mxGeometry width="50" height="50" relative="1" as="geometry">
            <mxPoint x="520" y="950" as="sourcePoint" />
            <mxPoint x="520" y="980" as="targetPoint" />
          </mxGeometry>
        </mxCell>
        <mxCell id="fjABjcLvteYjOsmJWuXJ-98" value="" style="endArrow=classic;html=1;rounded=0;" edge="1" parent="1">
          <mxGeometry width="50" height="50" relative="1" as="geometry">
            <mxPoint x="79.43" y="975" as="sourcePoint" />
            <mxPoint x="79.43" y="945" as="targetPoint" />
          </mxGeometry>
        </mxCell>
        <mxCell id="fjABjcLvteYjOsmJWuXJ-99" value="" style="endArrow=classic;html=1;rounded=0;" edge="1" parent="1">
          <mxGeometry width="50" height="50" relative="1" as="geometry">
            <mxPoint x="520" y="850" as="sourcePoint" />
            <mxPoint x="520" y="820" as="targetPoint" />
          </mxGeometry>
        </mxCell>
        <mxCell id="fjABjcLvteYjOsmJWuXJ-100" value="Copy to new heighmap" style="text;html=1;align=center;verticalAlign=middle;whiteSpace=wrap;rounded=0;" vertex="1" parent="1">
          <mxGeometry x="165" y="990" width="70" height="30" as="geometry" />
        </mxCell>
        <mxCell id="fjABjcLvteYjOsmJWuXJ-101" value="Preform the smoothing" style="text;html=1;align=center;verticalAlign=middle;whiteSpace=wrap;rounded=0;" vertex="1" parent="1">
          <mxGeometry x="265" y="930" width="70" height="30" as="geometry" />
        </mxCell>
        <mxCell id="fjABjcLvteYjOsmJWuXJ-102" value="Copy back to orginal heighmap" style="text;html=1;align=center;verticalAlign=middle;whiteSpace=wrap;rounded=0;" vertex="1" parent="1">
          <mxGeometry x="365" y="990" width="70" height="30" as="geometry" />
        </mxCell>
        <mxCell id="fjABjcLvteYjOsmJWuXJ-103" value="" style="rounded=0;whiteSpace=wrap;html=1;gradientColor=none;strokeColor=default;fillStyle=solid;fillColor=#AFAFAF;" vertex="1" parent="1">
          <mxGeometry x="40" y="1120" width="80" height="80" as="geometry" />
        </mxCell>
        <mxCell id="fjABjcLvteYjOsmJWuXJ-104" value="" style="rounded=0;whiteSpace=wrap;html=1;gradientColor=none;strokeColor=default;fillStyle=solid;fillColor=#AFAFAF;" vertex="1" parent="1">
          <mxGeometry x="160" y="1120" width="80" height="80" as="geometry" />
        </mxCell>
        <mxCell id="fjABjcLvteYjOsmJWuXJ-105" value="" style="rounded=0;whiteSpace=wrap;html=1;gradientColor=none;strokeColor=default;fillStyle=solid;fillColor=#AFAFAF;" vertex="1" parent="1">
          <mxGeometry x="40" y="1240" width="80" height="80" as="geometry" />
        </mxCell>
        <mxCell id="fjABjcLvteYjOsmJWuXJ-106" value="" style="rounded=0;whiteSpace=wrap;html=1;gradientColor=none;strokeColor=default;fillStyle=solid;fillColor=#AFAFAF;" vertex="1" parent="1">
          <mxGeometry x="160" y="1240" width="80" height="80" as="geometry" />
        </mxCell>
        <mxCell id="fjABjcLvteYjOsmJWuXJ-107" value="" style="rounded=0;whiteSpace=wrap;html=1;fillColor=#36E4FF;" vertex="1" parent="1">
          <mxGeometry x="100" y="1180" width="20" height="20" as="geometry" />
        </mxCell>
        <mxCell id="fjABjcLvteYjOsmJWuXJ-108" value="" style="rounded=0;whiteSpace=wrap;html=1;fillColor=#36E4FF;" vertex="1" parent="1">
          <mxGeometry x="160" y="1180" width="20" height="20" as="geometry" />
        </mxCell>
        <mxCell id="fjABjcLvteYjOsmJWuXJ-109" value="" style="rounded=0;whiteSpace=wrap;html=1;fillColor=#36E4FF;" vertex="1" parent="1">
          <mxGeometry x="160" y="1240" width="20" height="20" as="geometry" />
        </mxCell>
        <mxCell id="fjABjcLvteYjOsmJWuXJ-110" value="" style="rounded=0;whiteSpace=wrap;html=1;fillColor=#36E4FF;" vertex="1" parent="1">
          <mxGeometry x="100" y="1240" width="20" height="20" as="geometry" />
        </mxCell>
        <mxCell id="fjABjcLvteYjOsmJWuXJ-111" value="" style="rounded=0;whiteSpace=wrap;html=1;gradientColor=none;strokeColor=default;fillStyle=solid;fillColor=#AFAFAF;" vertex="1" parent="1">
          <mxGeometry x="280" y="1140" width="80" height="80" as="geometry" />
        </mxCell>
        <mxCell id="fjABjcLvteYjOsmJWuXJ-112" value="" style="rounded=0;whiteSpace=wrap;html=1;gradientColor=none;strokeColor=default;fillStyle=solid;fillColor=#AFAFAF;" vertex="1" parent="1">
          <mxGeometry x="360" y="1140" width="80" height="80" as="geometry" />
        </mxCell>
        <mxCell id="fjABjcLvteYjOsmJWuXJ-113" value="" style="rounded=0;whiteSpace=wrap;html=1;gradientColor=none;strokeColor=default;fillStyle=solid;fillColor=#AFAFAF;" vertex="1" parent="1">
          <mxGeometry x="280" y="1220" width="80" height="80" as="geometry" />
        </mxCell>
        <mxCell id="fjABjcLvteYjOsmJWuXJ-114" value="" style="rounded=0;whiteSpace=wrap;html=1;gradientColor=none;strokeColor=default;fillStyle=solid;fillColor=#AFAFAF;" vertex="1" parent="1">
          <mxGeometry x="360" y="1220" width="80" height="80" as="geometry" />
        </mxCell>
        <mxCell id="fjABjcLvteYjOsmJWuXJ-115" value="" style="rounded=0;whiteSpace=wrap;html=1;fillColor=#36E4FF;" vertex="1" parent="1">
          <mxGeometry x="340" y="1200" width="20" height="20" as="geometry" />
        </mxCell>
        <mxCell id="fjABjcLvteYjOsmJWuXJ-116" value="" style="rounded=0;whiteSpace=wrap;html=1;fillColor=#36E4FF;" vertex="1" parent="1">
          <mxGeometry x="360" y="1200" width="20" height="20" as="geometry" />
        </mxCell>
        <mxCell id="fjABjcLvteYjOsmJWuXJ-117" value="" style="rounded=0;whiteSpace=wrap;html=1;fillColor=#36E4FF;" vertex="1" parent="1">
          <mxGeometry x="360" y="1220" width="20" height="20" as="geometry" />
        </mxCell>
        <mxCell id="fjABjcLvteYjOsmJWuXJ-118" value="" style="rounded=0;whiteSpace=wrap;html=1;fillColor=#36E4FF;" vertex="1" parent="1">
          <mxGeometry x="340" y="1220" width="20" height="20" as="geometry" />
        </mxCell>
        <mxCell id="fjABjcLvteYjOsmJWuXJ-119" value="" style="rounded=0;whiteSpace=wrap;html=1;fillColor=#36E4FF;" vertex="1" parent="1">
          <mxGeometry x="480" y="1200" width="40" height="40" as="geometry" />
        </mxCell>
        <mxCell id="fjABjcLvteYjOsmJWuXJ-120" value="" style="rounded=0;whiteSpace=wrap;html=1;gradientColor=none;strokeColor=default;fillStyle=solid;fillColor=#AFAFAF;" vertex="1" parent="1">
          <mxGeometry x="560" y="1140" width="80" height="80" as="geometry" />
        </mxCell>
        <mxCell id="fjABjcLvteYjOsmJWuXJ-121" value="" style="rounded=0;whiteSpace=wrap;html=1;gradientColor=none;strokeColor=default;fillStyle=solid;fillColor=#AFAFAF;" vertex="1" parent="1">
          <mxGeometry x="640" y="1140" width="80" height="80" as="geometry" />
        </mxCell>
        <mxCell id="fjABjcLvteYjOsmJWuXJ-122" value="" style="rounded=0;whiteSpace=wrap;html=1;gradientColor=none;strokeColor=default;fillStyle=solid;fillColor=#AFAFAF;" vertex="1" parent="1">
          <mxGeometry x="560" y="1220" width="80" height="80" as="geometry" />
        </mxCell>
        <mxCell id="fjABjcLvteYjOsmJWuXJ-123" value="" style="rounded=0;whiteSpace=wrap;html=1;gradientColor=none;strokeColor=default;fillStyle=solid;fillColor=#AFAFAF;" vertex="1" parent="1">
          <mxGeometry x="640" y="1220" width="80" height="80" as="geometry" />
        </mxCell>
        <mxCell id="fjABjcLvteYjOsmJWuXJ-124" value="" style="rounded=0;whiteSpace=wrap;html=1;fillColor=#36E4FF;" vertex="1" parent="1">
          <mxGeometry x="620" y="1200" width="20" height="20" as="geometry" />
        </mxCell>
        <mxCell id="fjABjcLvteYjOsmJWuXJ-125" value="" style="rounded=0;whiteSpace=wrap;html=1;fillColor=#36E4FF;" vertex="1" parent="1">
          <mxGeometry x="640" y="1200" width="20" height="20" as="geometry" />
        </mxCell>
        <mxCell id="fjABjcLvteYjOsmJWuXJ-126" value="" style="rounded=0;whiteSpace=wrap;html=1;fillColor=#36E4FF;" vertex="1" parent="1">
          <mxGeometry x="640" y="1220" width="20" height="20" as="geometry" />
        </mxCell>
        <mxCell id="fjABjcLvteYjOsmJWuXJ-127" value="" style="rounded=0;whiteSpace=wrap;html=1;fillColor=#36E4FF;" vertex="1" parent="1">
          <mxGeometry x="620" y="1220" width="20" height="20" as="geometry" />
        </mxCell>
        <mxCell id="fjABjcLvteYjOsmJWuXJ-128" value="" style="rounded=0;whiteSpace=wrap;html=1;gradientColor=none;strokeColor=default;fillStyle=solid;fillColor=#AFAFAF;" vertex="1" parent="1">
          <mxGeometry x="760" y="1120" width="80" height="80" as="geometry" />
        </mxCell>
        <mxCell id="fjABjcLvteYjOsmJWuXJ-129" value="" style="rounded=0;whiteSpace=wrap;html=1;gradientColor=none;strokeColor=default;fillStyle=solid;fillColor=#AFAFAF;" vertex="1" parent="1">
          <mxGeometry x="880" y="1120" width="80" height="80" as="geometry" />
        </mxCell>
        <mxCell id="fjABjcLvteYjOsmJWuXJ-130" value="" style="rounded=0;whiteSpace=wrap;html=1;gradientColor=none;strokeColor=default;fillStyle=solid;fillColor=#AFAFAF;" vertex="1" parent="1">
          <mxGeometry x="760" y="1240" width="80" height="80" as="geometry" />
        </mxCell>
        <mxCell id="fjABjcLvteYjOsmJWuXJ-131" value="" style="rounded=0;whiteSpace=wrap;html=1;gradientColor=none;strokeColor=default;fillStyle=solid;fillColor=#AFAFAF;" vertex="1" parent="1">
          <mxGeometry x="880" y="1240" width="80" height="80" as="geometry" />
        </mxCell>
        <mxCell id="fjABjcLvteYjOsmJWuXJ-132" value="" style="rounded=0;whiteSpace=wrap;html=1;fillColor=#36E4FF;" vertex="1" parent="1">
          <mxGeometry x="820" y="1180" width="20" height="20" as="geometry" />
        </mxCell>
        <mxCell id="fjABjcLvteYjOsmJWuXJ-133" value="" style="rounded=0;whiteSpace=wrap;html=1;fillColor=#36E4FF;" vertex="1" parent="1">
          <mxGeometry x="880" y="1180" width="20" height="20" as="geometry" />
        </mxCell>
        <mxCell id="fjABjcLvteYjOsmJWuXJ-134" value="" style="rounded=0;whiteSpace=wrap;html=1;fillColor=#36E4FF;" vertex="1" parent="1">
          <mxGeometry x="880" y="1240" width="20" height="20" as="geometry" />
        </mxCell>
        <mxCell id="fjABjcLvteYjOsmJWuXJ-135" value="" style="rounded=0;whiteSpace=wrap;html=1;fillColor=#36E4FF;" vertex="1" parent="1">
          <mxGeometry x="820" y="1240" width="20" height="20" as="geometry" />
        </mxCell>
        <mxCell id="fjABjcLvteYjOsmJWuXJ-136" value="" style="endArrow=classic;html=1;rounded=0;" edge="1" parent="1">
          <mxGeometry width="50" height="50" relative="1" as="geometry">
            <mxPoint x="250" y="1219.6" as="sourcePoint" />
            <mxPoint x="270" y="1219.6" as="targetPoint" />
          </mxGeometry>
        </mxCell>
        <mxCell id="fjABjcLvteYjOsmJWuXJ-137" value="" style="endArrow=classic;html=1;rounded=0;" edge="1" parent="1">
          <mxGeometry width="50" height="50" relative="1" as="geometry">
            <mxPoint x="450" y="1220" as="sourcePoint" />
            <mxPoint x="470" y="1220" as="targetPoint" />
          </mxGeometry>
        </mxCell>
        <mxCell id="fjABjcLvteYjOsmJWuXJ-138" value="" style="endArrow=classic;html=1;rounded=0;" edge="1" parent="1">
          <mxGeometry width="50" height="50" relative="1" as="geometry">
            <mxPoint x="530" y="1219.6" as="sourcePoint" />
            <mxPoint x="550" y="1219.6" as="targetPoint" />
          </mxGeometry>
        </mxCell>
        <mxCell id="fjABjcLvteYjOsmJWuXJ-139" value="" style="endArrow=classic;html=1;rounded=0;" edge="1" parent="1">
          <mxGeometry width="50" height="50" relative="1" as="geometry">
            <mxPoint x="730" y="1219.6" as="sourcePoint" />
            <mxPoint x="750" y="1219.6" as="targetPoint" />
          </mxGeometry>
        </mxCell>
        <mxCell id="fjABjcLvteYjOsmJWuXJ-140" value="" style="endArrow=classic;html=1;rounded=0;" edge="1" parent="1">
          <mxGeometry width="50" height="50" relative="1" as="geometry">
            <mxPoint x="65" y="1295" as="sourcePoint" />
            <mxPoint x="95" y="1265" as="targetPoint" />
          </mxGeometry>
        </mxCell>
        <mxCell id="fjABjcLvteYjOsmJWuXJ-141" value="" style="endArrow=classic;html=1;rounded=0;" edge="1" parent="1">
          <mxGeometry width="50" height="50" relative="1" as="geometry">
            <mxPoint x="215" y="1145" as="sourcePoint" />
            <mxPoint x="185" y="1175" as="targetPoint" />
          </mxGeometry>
        </mxCell>
        <mxCell id="fjABjcLvteYjOsmJWuXJ-142" value="" style="endArrow=classic;html=1;rounded=0;" edge="1" parent="1">
          <mxGeometry width="50" height="50" relative="1" as="geometry">
            <mxPoint x="215" y="1295" as="sourcePoint" />
            <mxPoint x="185" y="1265" as="targetPoint" />
          </mxGeometry>
        </mxCell>
        <mxCell id="fjABjcLvteYjOsmJWuXJ-143" value="" style="endArrow=classic;html=1;rounded=0;" edge="1" parent="1">
          <mxGeometry width="50" height="50" relative="1" as="geometry">
            <mxPoint x="65" y="1145" as="sourcePoint" />
            <mxPoint x="95" y="1175" as="targetPoint" />
          </mxGeometry>
        </mxCell>
        <mxCell id="fjABjcLvteYjOsmJWuXJ-144" value="" style="endArrow=classic;html=1;rounded=0;" edge="1" parent="1">
          <mxGeometry width="50" height="50" relative="1" as="geometry">
            <mxPoint x="905" y="1175" as="sourcePoint" />
            <mxPoint x="935" y="1145" as="targetPoint" />
          </mxGeometry>
        </mxCell>
        <mxCell id="fjABjcLvteYjOsmJWuXJ-145" value="" style="endArrow=classic;html=1;rounded=0;" edge="1" parent="1">
          <mxGeometry width="50" height="50" relative="1" as="geometry">
            <mxPoint x="815" y="1265" as="sourcePoint" />
            <mxPoint x="785" y="1295" as="targetPoint" />
          </mxGeometry>
        </mxCell>
        <mxCell id="fjABjcLvteYjOsmJWuXJ-146" value="" style="endArrow=classic;html=1;rounded=0;" edge="1" parent="1">
          <mxGeometry width="50" height="50" relative="1" as="geometry">
            <mxPoint x="815" y="1175" as="sourcePoint" />
            <mxPoint x="785" y="1145" as="targetPoint" />
          </mxGeometry>
        </mxCell>
        <mxCell id="fjABjcLvteYjOsmJWuXJ-147" value="" style="endArrow=classic;html=1;rounded=0;" edge="1" parent="1">
          <mxGeometry width="50" height="50" relative="1" as="geometry">
            <mxPoint x="905" y="1265" as="sourcePoint" />
            <mxPoint x="935" y="1295" as="targetPoint" />
          </mxGeometry>
        </mxCell>
      </root>
    </mxGraphModel>
  </diagram>
</mxfile>
